<svg width="43" height="43" viewBox="0 0 43 43" fill="none" xmlns="http://www.w3.org/2000/svg">
<path d="M37.6041 24.9289L37.6024 25.4938C37.5903 29.4426 37.5783 33.3895 37.5663 37.3346C37.5576 40.1783 35.6211 42.1056 32.7869 42.0997L26.546 42.0807C25.541 42.0776 25.0769 41.6018 25.08 40.5845L25.1087 31.1678C25.1132 29.6842 24.2942 28.8563 22.7991 28.849C21.6243 28.8455 20.4468 28.8419 19.2693 28.8383C17.9 28.8341 17.0376 29.6843 17.0306 31.0609C17.021 34.2144 17.0114 37.367 17.0018 40.5187C16.9985 41.5937 16.5453 42.0502 15.4855 42.047L9.24195 42.028C6.46246 42.0195 4.52959 40.0666 4.53536 37.2751C4.54743 33.3153 4.5595 29.3547 4.57157 25.3931L4.57328 24.831L4.04203 24.8294C2.35516 24.8242 0.947621 23.9205 0.368917 22.416C-0.245084 20.8127 0.0742569 19.363 1.28287 18.1491C3.87315 15.5492 6.48257 12.9548 9.08373 10.3768C12.1326 7.34495 15.228 4.36262 18.2086 1.25928C19.7498 -0.342964 22.543 -0.331709 24.1017 1.27724C29.6598 6.97423 35.2628 12.6247 40.9106 18.2288C42.6579 19.9672 42.4154 23.1913 40.2126 24.4158C39.6421 24.7469 38.9972 24.928 38.3379 24.9421L37.6041 24.9289Z" fill="#3C9AFB" fill-opacity="0.8"/>
</svg>
