<svg width="18" height="18" viewBox="0 0 18 18" fill="none" xmlns="http://www.w3.org/2000/svg">
<path d="M13.149 14.3756C11.4864 15.7106 9.36348 16.3348 7.24252 16.1125C5.12155 15.8902 3.17437 14.8393 1.82505 13.1887C-0.7452 10.0158 -0.584118 5.43969 2.20366 2.54408C5.09137 -0.454948 9.63458 -0.854504 12.915 1.62275C14.7245 2.98829 15.8015 4.81215 16.0896 7.06141C16.3777 9.31068 15.7769 11.3202 14.3565 13.1617C14.4325 13.2022 14.5042 13.2502 14.5705 13.3051C15.6099 14.3384 16.6473 15.3734 17.6828 16.4099C17.9297 16.6555 18.052 16.941 17.9791 17.2842C17.9475 17.4377 17.8762 17.5802 17.7723 17.6975C17.6684 17.8149 17.5355 17.903 17.387 17.953C17.2384 18.0031 17.0793 18.0133 16.9255 17.9828C16.7717 17.9523 16.6287 17.882 16.5105 17.7789C16.42 17.7014 16.3389 17.6132 16.2542 17.5298C15.2619 16.538 14.2699 15.5461 13.2783 14.5543C13.2299 14.4987 13.1867 14.4389 13.149 14.3756ZM14.3636 8.08851C14.3643 6.84588 13.9963 5.63094 13.3062 4.5973C12.6162 3.56365 11.6349 2.75771 10.4866 2.28137C9.33833 1.80503 8.0745 1.67968 6.85492 1.92117C5.63534 2.16265 4.51479 2.76013 3.63491 3.63807C2.75504 4.516 2.15537 5.63497 1.91171 6.8535C1.66804 8.07203 1.79133 9.33541 2.26599 10.4839C2.74064 11.6324 3.54535 12.6145 4.57837 13.3059C5.61139 13.9974 6.82634 14.3672 8.06962 14.3686C8.89618 14.3719 9.71522 14.2117 10.4796 13.8974C11.244 13.5831 11.9387 13.1208 12.5236 12.5371C13.1086 11.9534 13.5723 11.2599 13.8881 10.4964C14.2038 9.73298 14.3654 8.91464 14.3636 8.08851Z" fill="black"/>
</svg>
